<svg xmlns="http://www.w3.org/2000/svg" xmlns:xlink="http://www.w3.org/1999/xlink" width="1920" zoomAndPan="magnify" viewBox="0 0 1440 809.999993" height="1080" preserveAspectRatio="xMidYMid meet" version="1.0"><defs><g/><clipPath id="4cf78567da"><path d="M 316.136719 62.105469 L 1103.722656 62.105469 L 1103.722656 747.894531 L 316.136719 747.894531 Z M 316.136719 62.105469 " clip-rule="nonzero"/></clipPath><clipPath id="02cc09a145"><path d="M 377.636719 62.105469 L 1042.167969 62.105469 C 1058.476562 62.105469 1074.121094 68.585938 1085.652344 80.117188 C 1097.1875 91.652344 1103.667969 107.292969 1103.667969 123.605469 L 1103.667969 686.394531 C 1103.667969 702.707031 1097.1875 718.347656 1085.652344 729.882812 C 1074.121094 741.414062 1058.476562 747.894531 1042.167969 747.894531 L 377.636719 747.894531 C 361.324219 747.894531 345.683594 741.414062 334.148438 729.882812 C 322.617188 718.347656 316.136719 702.707031 316.136719 686.394531 L 316.136719 123.605469 C 316.136719 107.292969 322.617188 91.652344 334.148438 80.117188 C 345.683594 68.585938 361.324219 62.105469 377.636719 62.105469 Z M 377.636719 62.105469 " clip-rule="nonzero"/></clipPath></defs><g clip-path="url(#4cf78567da)"><g clip-path="url(#02cc09a145)"><path fill="#ffffff" d="M 316.136719 62.105469 L 1103.722656 62.105469 L 1103.722656 747.894531 L 316.136719 747.894531 Z M 316.136719 62.105469 " fill-opacity="1" fill-rule="nonzero"/></g></g><g fill="#000000" fill-opacity="1"><g transform="translate(388.686321, 660.777066)"><g><path d="M 211.546875 -516.578125 L 354.921875 -516.578125 L 354.921875 0 L 211.546875 0 Z M 171.140625 -370.03125 L 171.140625 0 C 119.828125 -5.15625 80.171875 -23.835938 52.171875 -56.046875 C 24.179688 -88.265625 10.1875 -131.429688 10.1875 -185.546875 C 10.1875 -238.960938 24.300781 -281.890625 52.53125 -314.328125 C 80.757812 -346.773438 120.296875 -365.34375 171.140625 -370.03125 Z M 171.140625 -370.03125 "/></g></g></g><g fill="#000000" fill-opacity="1"><g transform="translate(656.317612, 660.777066)"><g><path d="M 203.109375 0 L 203.109375 -370.03125 C 254.648438 -364.875 294.476562 -346.128906 322.59375 -313.796875 C 350.707031 -281.472656 364.765625 -238.253906 364.765625 -184.140625 C 364.765625 -130.722656 350.53125 -87.847656 322.0625 -55.515625 C 293.601562 -23.191406 253.953125 -4.6875 203.109375 0 Z M 163.40625 0 L 20.03125 0 L 20.03125 -516.578125 L 163.40625 -516.578125 Z M 163.40625 0 "/></g></g></g></svg>