<svg xmlns="http://www.w3.org/2000/svg" xmlns:xlink="http://www.w3.org/1999/xlink" width="1080" zoomAndPan="magnify" viewBox="0 0 810 809.999993" height="1080" preserveAspectRatio="xMidYMid meet" version="1.0"><defs><g/><clipPath id="adbfce0f69"><path d="M 9.882812 60.929688 L 800.175781 60.929688 L 800.175781 749.070312 L 9.882812 749.070312 Z M 9.882812 60.929688 " clip-rule="nonzero"/></clipPath><clipPath id="131f721e5b"><path d="M 60.882812 60.929688 L 749.117188 60.929688 C 777.28125 60.929688 800.117188 83.761719 800.117188 111.929688 L 800.117188 698.070312 C 800.117188 726.238281 777.28125 749.070312 749.117188 749.070312 L 60.882812 749.070312 C 32.71875 749.070312 9.882812 726.238281 9.882812 698.070312 L 9.882812 111.929688 C 9.882812 83.761719 32.71875 60.929688 60.882812 60.929688 Z M 60.882812 60.929688 " clip-rule="nonzero"/></clipPath></defs><g clip-path="url(#adbfce0f69)"><g clip-path="url(#131f721e5b)"><path fill="#000000" d="M 9.882812 60.929688 L 800.175781 60.929688 L 800.175781 749.070312 L 9.882812 749.070312 Z M 9.882812 60.929688 " fill-opacity="1" fill-rule="nonzero"/></g></g><g fill="#ffffff" fill-opacity="1"><g transform="translate(82.682721, 661.654544)"><g><path d="M 212.28125 -518.34375 L 356.140625 -518.34375 L 356.140625 0 L 212.28125 0 Z M 171.71875 -371.296875 L 171.71875 0 C 120.238281 -5.164062 80.453125 -23.910156 52.359375 -56.234375 C 24.265625 -88.566406 10.21875 -131.882812 10.21875 -186.1875 C 10.21875 -239.78125 24.378906 -282.851562 52.703125 -315.40625 C 81.035156 -347.96875 120.707031 -366.597656 171.71875 -371.296875 Z M 171.71875 -371.296875 "/></g></g></g><g fill="#ffffff" fill-opacity="1"><g transform="translate(351.232174, 661.654544)"><g><path d="M 203.8125 0 L 203.8125 -371.296875 C 255.53125 -366.128906 295.492188 -347.320312 323.703125 -314.875 C 351.910156 -282.4375 366.015625 -239.066406 366.015625 -184.765625 C 366.015625 -131.171875 351.734375 -88.148438 323.171875 -55.703125 C 294.609375 -23.265625 254.820312 -4.695312 203.8125 0 Z M 163.96875 0 L 20.09375 0 L 20.09375 -518.34375 L 163.96875 -518.34375 Z M 163.96875 0 "/></g></g></g></svg>